<?xml version="1.0" encoding="UTF-8"?>
<svg id="Layer_2" xmlns="http://www.w3.org/2000/svg" viewBox="0 0 650 650">
  <defs>
    <style>
      .cls-1 {
        fill: #cc932f;
      }

      .cls-2 {
        fill: #bb2027;
      }

      .cls-3 {
        fill: #387d99;
      }
    </style>
  </defs>
  <g id="Layer_1-2" data-name="Layer_1">
    <g>
      <path class="cls-3" d="M599.1,250.54c-12.56,0-24.4-7.61-29.2-20.03-12.47-32.29-30.97-61.43-55-86.62-28.4-29.77-63.79-52.72-102.35-66.36-16.29-5.76-24.83-23.64-19.07-39.94,5.76-16.29,23.65-24.83,39.94-19.07,47.78,16.9,91.61,45.31,126.77,82.16,29.74,31.18,52.65,67.27,68.1,107.28,6.23,16.12-1.8,34.24-17.92,40.46-3.71,1.43-7.52,2.11-11.26,2.11Z"/>
      <path class="cls-1" d="M147.84,384.92c7.82,0,15.19,4.74,18.17,12.46,7.76,20.09,19.27,38.23,34.23,53.9,17.67,18.52,39.7,32.8,63.69,41.29,10.14,3.59,15.45,14.71,11.86,24.85-3.59,10.14-14.71,15.45-24.85,11.86-29.73-10.52-57.01-28.2-78.88-51.12-18.51-19.4-32.76-41.86-42.38-66.76-3.87-10.03,1.12-21.31,11.15-25.18,2.31-.89,4.68-1.31,7.01-1.31Z"/>
      <path class="cls-2" d="M618.71,293.71c-17.28,0-31.29,14.01-31.29,31.29,0,144.69-117.72,262.41-262.41,262.41-134.11,0-245.02-101.12-260.54-231.12h105.24c16.11,0,29.18-13.06,29.18-29.18h0c0-69.06,54.64-126.91,123.69-128.22,70.65-1.34,128.56,55.75,128.56,126.1,0,59.4-41.29,109.31-96.67,122.62v63.78c93.8-14.76,164.89-98.87,158.91-198.02-5.82-96.51-85.17-173.69-181.81-176.97-96.29-3.28-177.37,66.01-192.67,157.31h-74.42c15.52-130,126.43-231.12,260.54-231.12,17.28,0,31.29-14.01,31.29-31.29S342.28,0,325,0C145.79,0,0,145.79,0,325s145.79,325,325,325,325-145.8,325-325c0-17.28-14.01-31.29-31.29-31.29Z"/>
      <path class="cls-2" d="M356,511.19h-27.69c-19.27,0-34.89-15.62-34.89-34.89v-54.97c-39.54-13.72-67.38-52.68-64.15-97.5,3.39-47.06,41.54-85.12,88.61-88.41,38.87-2.72,73.31,17.93,90.66,49.3,11.46,20.73-3.5,46.17-27.19,46.17h0c-11.3,0-22.1-5.79-27.49-15.73-5.8-10.7-17.33-17.87-30.45-17.36-17.03.66-31.12,14.75-31.78,31.78-.73,18.85,14.4,34.42,33.09,34.42h17.69c7.51,0,13.6,6.09,13.6,13.6v133.59Z"/>
    </g>
  </g>
</svg>