<?xml version="1.0" standalone="no"?>
<!DOCTYPE svg PUBLIC "-//W3C//DTD SVG 20010904//EN"
 "http://www.w3.org/TR/2001/REC-SVG-20010904/DTD/svg10.dtd">
<svg version="1.0" xmlns="http://www.w3.org/2000/svg"
 width="500.000000pt" height="500.000000pt" viewBox="0 0 500.000000 500.000000"
 preserveAspectRatio="xMidYMid meet">

<g transform="translate(0.000000,500.000000) scale(0.100000,-0.100000)"
fill="#000000" stroke="none">
<path d="M2382 4700 c-587 -62 -1123 -345 -1494 -789 -228 -273 -388 -608
-471 -986 -42 -187 -52 -522 -23 -738 43 -313 173 -662 338 -907 99 -146 291
-367 402 -461 27 -23 27 -21 -8 27 -142 201 -132 416 26 571 108 105 245 156
413 155 207 -1 347 -62 589 -256 89 -72 166 -135 172 -140 33 -30 221 -171
304 -228 436 -296 775 -354 1177 -202 69 25 247 116 273 139 18 15 76 45 81
42 2 -1 3 0 2 2 -2 2 13 15 33 28 38 26 165 181 243 296 80 119 150 264 167
347 24 112 15 281 -20 385 -115 343 -464 566 -807 515 -45 -6 -120 -25 -165
-42 -161 -58 -275 -152 -387 -317 -85 -127 -132 -180 -215 -238 -126 -90 -297
-140 -449 -130 -46 2 -83 4 -83 2 0 -8 149 -145 242 -223 309 -257 598 -384
922 -405 26 -1 40 -7 41 -17 2 -12 -10 -15 -62 -14 -358 7 -655 155 -1086 542
-65 59 -123 106 -128 104 -6 -1 -8 2 -5 6 3 5 -6 18 -20 28 -15 11 -32 25 -38
32 -6 7 -17 19 -23 27 -10 10 -31 12 -88 8 -53 -4 -75 -3 -75 6 0 8 -37 11
-120 11 -73 0 -120 -4 -120 -10 0 -6 -33 -10 -80 -10 -72 0 -80 -2 -80 -19 0
-18 -14 -19 -317 -26 -175 -4 -413 -7 -530 -8 -116 -1 -211 -6 -210 -11 1 -5
-4 -11 -12 -13 -10 -4 -11 1 -6 18 5 19 4 21 -4 9 -9 -12 -13 -12 -19 -3 -9
15 -15 -31 -15 -127 1 -63 0 -63 -9 -25 -16 66 -3 279 22 365 73 250 262 445
491 506 101 27 262 23 372 -10 97 -29 222 -88 308 -147 l56 -38 -5 119 c-5
138 6 212 50 318 78 187 242 339 443 409 73 25 93 27 220 27 125 0 149 -3 220
-27 44 -15 106 -42 138 -62 32 -19 60 -35 62 -35 17 0 -312 290 -445 392 -285
218 -624 381 -868 417 l-57 9 60 2 c79 4 100 2 163 -16 29 -8 50 -19 47 -24
-3 -6 1 -7 10 -4 43 17 326 -115 513 -240 194 -129 320 -233 612 -506 232
-216 337 -268 565 -277 147 -6 236 11 350 66 234 113 385 313 415 550 18 142
-22 331 -97 461 -103 175 -408 424 -698 568 -212 105 -372 156 -640 202 -137
24 -429 34 -563 20z m-455 -376 c-3 -3 -12 -4 -19 -1 -8 3 -5 6 6 6 11 1 17
-2 13 -5z m86 -21 c-7 -2 -21 -2 -30 0 -10 3 -4 5 12 5 17 0 24 -2 18 -5z m63
-13 c9 0 12 -4 9 -10 -9 -14 -18 -13 -41 6 -17 14 -17 15 -1 10 10 -3 25 -6
33 -6z m82 -33 c6 0 12 -4 12 -9 0 -4 6 -8 13 -8 12 0 54 -21 117 -58 19 -12
49 -29 65 -38 85 -47 269 -193 431 -341 121 -110 139 -124 217 -172 193 -118
428 -132 610 -38 59 31 161 122 206 182 l22 30 -22 -45 c-35 -72 -135 -163
-231 -209 -96 -45 -162 -61 -256 -61 -179 1 -352 83 -532 254 -199 189 -386
337 -532 419 -43 24 -74 48 -70 52 4 5 2 5 -4 2 -6 -4 -36 7 -65 24 -41 23
-46 29 -24 23 17 -3 36 -7 43 -7z m-485 -344 c-7 -2 -19 -2 -25 0 -7 3 -2 5
12 5 14 0 19 -2 13 -5z m666 -2098 c12 -12 11 -14 -10 -12 -13 1 -33 10 -44
20 -20 19 -20 20 10 13 17 -4 36 -14 44 -21z m-79 6 c0 -12 -20 -25 -27 -18
-7 7 6 27 18 27 5 0 9 -4 9 -9z m1487 -707 c-3 -3 -12 -4 -19 -1 -8 3 -5 6 6
6 11 1 17 -2 13 -5z"/>
<path d="M1770 3890 c8 -5 22 -9 30 -9 10 0 8 3 -5 9 -27 12 -43 12 -25 0z"/>
<path d="M2256 1891 c-3 -5 6 -8 20 -8 19 0 22 2 13 8 -18 11 -26 11 -33 0z"/>
<path d="M3618 1133 c12 -2 32 -2 45 0 12 2 2 4 -23 4 -25 0 -35 -2 -22 -4z"/>
<path d="M3880 700 c-8 -5 -10 -10 -5 -10 6 0 17 5 25 10 8 5 11 10 5 10 -5 0
-17 -5 -25 -10z"/>
</g>
</svg>
